<?xml version="1.0" encoding="UTF-8"?>
<svg viewBox="0 0 50 50" xmlns="http://www.w3.org/2000/svg" xmlns:svg="http://www.w3.org/2000/svg">
 <title>keycloak-operator-logo</title>

 <g class="layer">
  <title>Layer 1</title>
  <path d="m7.45,14.36l5.72,-9.87l23.01,0l5.69,9.96l0.01,19.93l-5.69,9.96l-23.02,0.01l-5.78,-9.97l0.06,-20.02z" display="inline" fill="#4d4d4d" id="svg_1" stroke-width="0.26"/>
  <path d="m7.39,34.38l10.38,0l-5.7,-10.04l4.63,-9.98l-9.25,0l-5.79,10.06" fill="#ededed" fill-rule="nonzero" id="svg_2" stroke-width="0.33"/>
  <path d="m103.73,162.97l7.58,0l6.71,-9.77l-6.59,-10.16l-8.92,0l-5.37,9.82l6.59,10.11z" fill="#e0e0e0" fill-rule="nonzero" id="svg_3" stroke-width="0.33" transform="translate(-82.815, -128.588)"/>
  <path d="m84.47,153.01l5.74,9.96l10.38,0l-5.64,-9.93l-10.48,-0.03z" fill="#acacac" fill-rule="nonzero" id="svg_4" stroke-width="0.33" transform="translate(-82.815, -128.588)"/>
  <path d="m97.25,153.01l6.48,9.96l7.58,0l6.61,-9.95l-20.67,-0.01z" fill="#9e9e9e" fill-rule="nonzero" id="svg_5" stroke-width="0.33" transform="translate(-82.815, -128.588)"/>
  <path d="m17,24.43l-1.96,0.57l-1.88,-0.57l7.67,-13.29l1.92,3.31" fill="#00b8e3" fill-rule="nonzero" id="svg_6" stroke-width="0.33"/>
  <path d="m105.56,162.97l-1.91,3.33l-5.09,-5.48l-2.58,-7.8l0,0l3.84,0" fill="#33c6e9" fill-rule="nonzero" id="svg_7" stroke-width="0.33" transform="translate(-82.815, -128.588)"/>
  <path d="m13.16,24.43l0,0l0,0l-1.92,3.32l-1.92,-3.31l1.95,-3.38l5.73,-9.92l3.83,0" fill="#008aaa" fill-rule="nonzero" id="svg_8" stroke-width="0.33"/>
  <path d="m117.08,162.97l11.61,0l-0.01,-19.93l-11.6,0l0,19.93z" fill="#d4d4d4" fill-rule="nonzero" id="svg_9" stroke-width="0.33" transform="translate(-82.815, -128.588)"/>
  <path d="m117.08,153.04l0,9.93l11.59,0l0,-9.93l-11.59,0z" fill="#919191" fill-rule="nonzero" id="svg_10" stroke-width="0.33" transform="translate(-82.815, -128.588)"/>
  <path d="m20.83,37.72l-3.83,0l-5.76,-9.97l1.92,-3.32l7.67,13.29z" fill="#00b8e3" fill-rule="nonzero" id="svg_11" stroke-width="0.33"/>
  <path d="m36.17,24.43l-7.67,13.28c-0.7,-1.03 -1.91,-3.33 -1.91,-3.33l5.75,-9.95l3.83,0z" fill="#008aaa" fill-rule="nonzero" id="svg_12" stroke-width="0.33"/>
  <path d="m32.34,37.71l-3.84,0l7.67,-13.28l1.92,-3.32l1.92,3.34m-3.84,-0.02l-3.82,0l-5.76,-9.98l1.91,-3.31l4.65,5.92l3.02,7.37z" fill="#00b8e3" fill-rule="nonzero" id="svg_13" stroke-width="0.33"/>
  <path d="m38.09,21.11l0,0l-1.92,3.32l-7.67,-13.29l3.84,0l5.75,9.97z" fill="#33c6e9" fill-rule="nonzero" id="svg_14" stroke-width="0.33"/>
  <path d="m14.97,10.27l7.77,-3.72l-2.09,8.76l-5.68,-5.03z" fill="#008aaa" id="svg_15"/>
  <path d="m34.79,38.19l-6.76,4.35l0.64,-8.74l3,2.26l3.12,2.13z" fill="#00b8e3" fill-rule="nonzero" id="svg_19" stroke-width="0.33"/>
 </g>
</svg>